<svg t="1663055407462" class="icon" viewBox="0 0 1024 1024" version="1.1" xmlns="http://www.w3.org/2000/svg" p-id="2770" width="200" height="200"><path d="M92.483296 268.705915l835.042964 510.666851c41.842658-72.172035 65.813327-155.997367 65.813327-245.427323 0-270.648131-219.404426-490.052557-490.052557-490.052556-172.787236 0-324.676146 89.433957-411.93386 224.528996z" fill="#746BF9" p-id="2771"></path><path d="M906.515921 82.315164H127.949244c-12.083345 0-21.878436 9.79509-21.878435 21.878436v72.988125h822.321547v-72.988125c0.002-12.083345-9.79309-21.878436-21.876435-21.878436z" fill="#47477F" p-id="2772"></path><path d="M236.913375 104.847672c0-10.071121 6.156685-18.77009 14.891658-22.532508H127.949244c-12.083345 0-21.878436 9.79509-21.878435 21.878436v72.988125h130.842566z" fill="#2D2D59" p-id="2773"></path><path d="M180.653112 150.018701c-11.269255 0-20.274257-9.189023-20.274257-20.274257 0-12.849431 11.827317-22.36649 24.226697-19.870212a20.254255 20.254255 0 0 1 16.319817 19.870212c0.002 10.813204-8.71097 20.274257-20.272257 20.274257z" fill="#FF4155" p-id="2774"></path><path d="M236.913375 150.018701c-11.269255 0-20.274257-9.189023-20.274257-20.274257 0-12.849431 11.827317-22.36649 24.228697-19.870212a20.254255 20.254255 0 0 1 16.319817 19.870212c0 10.813204-8.71297 20.274257-20.274257 20.274257z" fill="#FFDD40" p-id="2775"></path><path d="M293.173638 150.018701c-11.269255 0-20.274257-9.189023-20.274257-20.274257 0-12.849431 11.827317-22.36649 24.228698-19.870212a20.254255 20.254255 0 0 1 16.319817 19.870212c0 10.813204-8.71497 20.274257-20.274258 20.274257z" fill="#89E56A" p-id="2776"></path><path d="M393.456803 144.750115h-29.003229a15.00167 15.00167 0 0 1 0-30.00334h29.003229a15.00167 15.00167 0 0 1 0 30.00334zM771.830926 144.750115H457.129891a15.00167 15.00167 0 0 1 0-30.00334h314.701035a15.00167 15.00167 0 0 1 0 30.00334z" fill="#5F5F9B" p-id="2777"></path><path d="M928.394356 777.904603V172.977257H106.072809v97.72888h703.606331c12.083345 0 21.878436 9.79509 21.878436 21.878436v605.199376a492.248801 492.248801 0 0 0 96.83678-119.879346z" fill="#D3DCFB" p-id="2778"></path><path d="M265.654575 268.693913h-4.22047c-13.485501 0-24.52073-11.033228-24.52073-24.52073V172.977257H106.072809v97.72888h159.581766z" fill="#BEC8F7" p-id="2779"></path><path d="M13.234473 533.937442v0.020002c0.006001 270.64413 219.408426 490.042556 490.052557 490.042556 128.226275 0 244.931268-49.271485 332.268991-129.88446V357.369785H46.042126c-21.170357 54.784099-32.807652 114.314726-32.807653 176.567657z" fill="#E9EFFF" p-id="2780"></path><path d="M185.863692 456.710845h-17.311927c-13.461499 0-24.474725-11.013226-24.474725-24.474725v-74.866335H46.042126c-21.170357 54.784099-32.805652 114.312726-32.807653 176.567657v0.018002c0.002 128.728331 49.665529 245.839369 130.842567 333.287104v-105.209712c0-13.461499 11.013226-24.474725 24.474725-24.474725h17.311927z" fill="#BEC8F7" p-id="2781"></path><path d="M813.677585 266.705692H92.483296a488.270358 488.270358 0 0 0-48.037348 94.866561h791.112073v-72.988125c-0.002-12.083345-9.797091-21.878436-21.880436-21.878436z" fill="#47477F" p-id="2782"></path><path d="M144.07504 289.332211c0-10.181133 6.304702-18.95211 15.199692-22.626519H92.481296a488.270358 488.270358 0 0 0-48.037348 94.866561h99.631092z" fill="#2D2D59" p-id="2783"></path><path d="M87.814776 334.411229c-11.269255 0-20.274257-9.189023-20.274257-20.274257 0-12.849431 11.827317-22.36649 24.228697-19.870212a20.254255 20.254255 0 0 1 16.319817 19.870212c0 10.811204-8.71297 20.274257-20.274257 20.274257z" fill="#FF4155" p-id="2784"></path><path d="M144.07504 334.411229c-11.269255 0-20.274257-9.189023-20.274257-20.274257 0-12.849431 11.827317-22.36649 24.228697-19.870212a20.254255 20.254255 0 0 1 16.319817 19.870212c0 10.811204-8.71297 20.274257-20.274257 20.274257z" fill="#FFDD40" p-id="2785"></path><path d="M200.335303 334.411229c-11.269255 0-20.274257-9.189023-20.274257-20.274257 0-12.849431 11.827317-22.36649 24.228697-19.870212a20.254255 20.254255 0 0 1 16.319817 19.870212c0 10.811204-8.71297 20.274257-20.274257 20.274257z" fill="#89E56A" p-id="2786"></path><path d="M300.618467 329.140643h-29.003229a15.00167 15.00167 0 0 1 0-30.003341h29.003229a15.00167 15.00167 0 0 1 0 30.003341zM771.670909 329.140643h-29.003229a15.00167 15.00167 0 0 1 0-30.003341h29.003229a15.00167 15.00167 0 0 1 0 30.003341zM678.994591 329.140643H364.293556a15.00167 15.00167 0 0 1 0-30.003341h314.701035a15.00167 15.00167 0 0 1 0 30.003341z" fill="#5F5F9B" p-id="2787"></path><path d="M424.396247 483.239798c0 15.673745 12.705414 28.379159 28.377159 28.37916h252.704133c15.671745 0 28.377159-12.705414 28.37716-28.37716 0-15.671745-12.705414-28.377159-28.37716-28.377159H452.773406c-15.671745-0.002-28.377159 12.703414-28.377159 28.375159z" fill="#FF4155" p-id="2788"></path><path d="M556.600965 483.239798c0-15.671745 12.705414-28.377159 28.37716-28.377159h-132.204719c-15.671745 0-28.377159 12.705414-28.377159 28.377159 0 15.673745 12.705414 28.379159 28.377159 28.37916h132.204719c-15.671745 0-28.377159-12.705414-28.37716-28.37916z" fill="#E80054" p-id="2789"></path><path d="M733.854699 696.887583H424.394247a15.00167 15.00167 0 0 1 0-30.00334h309.460452a15.00167 15.00167 0 0 1 0 30.00334zM733.854699 640.133265H424.394247a15.00167 15.00167 0 0 1 0-30.00334h309.460452a15.00167 15.00167 0 0 1 0 30.00334zM733.854699 583.376946H424.394247a15.00167 15.00167 0 0 1 0-30.00334h309.460452a15.00167 15.00167 0 0 1 0 30.00334zM733.854699 810.40022H114.935796a15.00167 15.00167 0 0 1 0-30.00334h618.920903a15.00167 15.00167 0 1 1-0.002 30.00334zM733.854699 753.643902H424.396247a15.00167 15.00167 0 0 1 0-30.00334h309.458452a15.00167 15.00167 0 0 1 0 30.00334z" fill="#BEC8F7" p-id="2790"></path><path d="M733.854699 893.907517H170.796014a493.200907 493.200907 0 0 0 35.721977 30.00334h527.336708a15.00167 15.00167 0 0 0 0-30.00334zM733.854699 837.153199H118.282168a492.550835 492.550835 0 0 0 25.710862 30.00334h589.861669a15.00167 15.00167 0 0 0 0-30.00334zM747.292195 959.024766a14.989669 14.989669 0 0 0-13.437496-8.36093H245.352315a488.618397 488.618397 0 0 0 56.172253 30.00334h403.524924a488.314363 488.314363 0 0 0 42.242703-21.64241z" fill="#BEC8F7" p-id="2791"></path><path d="M348.855837 454.862639h-21.722418v3.000334c0.476053 1.714191 0.80809 3.41238 0.992111 5.066564 1.112124 9.977111-1.924214 19.550176-8.552953 26.961002a34.539845 34.539845 0 0 1-35.159914 10.187134c-5.636628-1.604179-11.613293 0.776086-14.537618 5.792645-10.127127 17.389936-28.899217 28.193139-48.993455 28.193138a56.566297 56.566297 0 0 1-43.306821-20.140242 12.635407 12.635407 0 0 0-9.675077-4.468497c-1.868208 0-3.758418 0.408045-5.534616 1.256139a34.1378 34.1378 0 0 1-14.825651 3.352374 34.499841 34.499841 0 0 1-26.466946-12.287368h-3.000334v168.232729l56.766319-56.76632c7.756864-7.756864 20.336264-7.756864 28.095128 0l66.447398 66.447398 36.696085-36.696086c7.758864-7.756864 20.336264-7.756864 28.095128 0l30.579404 30.579405V470.760409a15.89977 15.89977 0 0 0-15.89577-15.89777z" fill="#42C3FC" p-id="2792"></path><path d="M161.270954 520.35393c0.924103-3.010335 0.698078-6.166687-0.476053-9.001002a34.103797 34.103797 0 0 1-13.255476 2.706301 34.499841 34.499841 0 0 1-26.466946-12.287368h-3.000334v168.23473l56.766319-56.76632v-4.000445c-33.86577-40.864549-18.734086-72.048021-13.56751-88.885896z" fill="#1AA9E8" p-id="2793"></path><path d="M133.967914 738.642232h198.370085l-129.402407-129.402406c-7.758864-7.756864-20.336264-7.756864-28.095127 0l-56.76632 56.766319v56.742317a15.891769 15.891769 0 0 0 15.893769 15.89377z" fill="#65D33C" p-id="2794"></path><path d="M133.967914 738.642232h198.370085l-113.512638-113.510637s6.37871 26.862991-8.510947 41.754648c-14.889658 14.889658-49.339493 49.781542-49.339493 49.781542s-13.129462 14.829651-42.902776 6.080677a15.89577 15.89577 0 0 0 15.895769 15.89377z" fill="#55BF28" p-id="2795"></path><path d="M306.077075 638.991138l-99.651094 99.651094h142.429856a15.89577 15.89577 0 0 0 15.89577-15.89377v-53.17792l-30.579404-30.579404c-7.758864-7.758864-20.336264-7.758864-28.095128 0z" fill="#89E56A" p-id="2796"></path><path d="M270.415105 588.71354m-28.057124 0a28.057124 28.057124 0 1 0 56.114247 0 28.057124 28.057124 0 1 0-56.114247 0Z" fill="#FFDD40" p-id="2797"></path><path d="M289.443223 583.684981a14.029562 14.029562 0 1 1-28.059124 0c0-7.748863 6.280699-14.027562 14.029562-14.027562s14.029562 6.280699 14.029562 14.027562z" fill="#FCECA9" p-id="2798"></path><path d="M118.072145 470.758409v32.089572c6.902768 8.658964 17.533952 14.213582 29.46728 14.213582 5.774643 0 11.233251-1.314146 16.117795-3.644405 4.018447-1.918214 8.750974-0.960107 11.623294 2.442272 10.943218 12.965443 27.30504 21.206361 45.601076 21.206361 22.020451 0 41.246592-11.933329 51.585743-29.683305 2.262252-3.882432 6.798757-5.650629 11.121238-4.418492a37.444169 37.444169 0 0 0 10.275144 1.430159c22.122463 0 39.768427-19.164134 37.244147-41.794653a36.438057 36.438057 0 0 0-1.764197-7.734861H133.967914a15.893769 15.893769 0 0 0-15.895769 15.89377z" fill="#8AE1FF" p-id="2799"></path><path d="M133.967914 454.862639a15.89577 15.89577 0 0 0-15.895769 15.893769v32.089573c6.902768 8.658964 17.533952 14.213582 29.46728 14.213582a37.284151 37.284151 0 0 0 14.105571-2.760307 13.881545 13.881545 0 0 0-2.758307-6.250696c-21.232364-27.12302 0.372041-53.187921 0.372041-53.187921H133.967914z" fill="#42C3FC" p-id="2800"></path><path d="M847.14551 263.019342a133.170826 133.170826 0 1 0 61.271827-259.198068 133.170826 133.170826 0 1 0-61.271827 259.198068Z" fill="#FF4155" p-id="2801"></path><path d="M997.974103 190.151169c-43.340825 5.000557-53.769986-38.600297-53.769987-38.600297l-112.084478-64.711204c-53.785988 0-48.731425-47.763317-48.727424-47.793321-24.07468 24.094682-38.964338 57.370387-38.964338 94.124479 0 73.548188 59.622638 133.170826 133.168825 133.170825 53.155918-0.002 99.021024-31.153468 120.377402-76.190482z" fill="#E80054" p-id="2802"></path><path d="M821.078409 170.947031c10.451164 2.200245 20.734308 6.036672 30.473393 11.659298s18.204027 12.611404 25.33282 20.562289l55.214147-39.716421a30.661413 30.661413 0 0 0 11.95133-11.633295l1.312146-2.272253c-0.170019-0.09401-0.344038-0.166018-0.512057-0.262029-9.677077-5.586622-15.36171-15.415716-16.08179-25.780871-0.146016-2.106234-1.326148-3.816425-2.936327-4.842539-1.774198-1.132126-4.070453-1.430159-6.160686-0.410045-20.616295 10.071121-44.858994-3.898434-46.447171-26.816986-0.162018-2.318258-1.568175-4.160463-3.434382-5.130571-1.694189-0.882098-3.766419-1.048117-5.66263-0.122014-9.335039 4.560508-20.690303 4.550507-30.367381-1.036115-0.168019-0.096011-0.318035-0.212024-0.484054-0.312035l-1.312146 2.272253a30.675415 30.675415 0 0 0-4.098456 16.1678z" fill="#FCF9EB" p-id="2803"></path><path d="M865.325335 137.303286c6.952774-20.600293 29.039233-15.279701 29.039233-15.279701l0.416046-2.302257c-11.543285-4.072453-20.606294-14.575623-21.5564-28.289149-0.160018-2.318258-1.568175-4.160463-3.434382-5.130571-1.694189-0.882098-3.764419-1.048117-5.66263-0.122014-9.335039 4.560508-20.690303 4.550507-30.367381-1.036115-0.168019-0.096011-0.318035-0.212024-0.484054-0.312035l-1.312146 2.272253a30.675415 30.675415 0 0 0-4.098456 16.1678l-6.788756 67.673534a103.429515 103.429515 0 0 1 29.243255 10.981223c4.856541-14.46161 11.153242-33.211697 15.005671-44.622968z" fill="#FCECA9" p-id="2804"></path><path d="M852.70793 180.602106a106.027804 106.027804 0 0 0-31.395495-11.987334l-5.500612 54.832104c-1.154128 9.983111 10.171132 16.521839 18.24003 10.531172l44.734981-32.179582a106.087811 106.087811 0 0 0-26.078904-21.19636z" fill="#5F5F9B" p-id="2805"></path><path d="M882.189212 0.116013l-50.069574 86.723655c0.166018 0.098011 0.318035 0.210023 0.486054 0.308034a34.607853 34.607853 0 0 0 32.537623 1.112124c1.112124-0.54206 2.364263-0.506056 3.492389 0.046005l47.671307-82.571193A132.928799 132.928799 0 0 0 882.189212 0.116013z" fill="#FFB332" p-id="2806"></path><path d="M916.307011 5.734638l-47.671307 82.571193c0.08801 0.042005 0.18002 0.064007 0.266029 0.114013 1.190132 0.688077 1.924214 1.844205 2.018225 3.172353 0.800089 11.529284 7.240806 21.854433 17.231918 27.623075s22.154466 6.182688 32.537623 1.112124a3.94844 3.94844 0 0 1 3.758418 0.160018c0.08601 0.050006 0.150017 0.118013 0.232026 0.172019l47.121246-81.617086a133.140822 133.140822 0 0 0-55.494178-33.307709z" fill="#FFDD40" p-id="2807"></path><path d="M971.799189 39.044347l-47.121246 81.617086c1.044116 0.698078 1.700189 1.766197 1.786199 3.000334a34.613853 34.613853 0 0 0 17.231918 27.623075c0.168019 0.096011 0.342038 0.172019 0.510057 0.26603l48.877441-84.659425a133.734888 133.734888 0 0 0-21.284369-27.8471z" fill="#FFB332" p-id="2808"></path><path d="M843.436898 202.444538s3.358374-10.017115 7.63085-22.742532a106.031804 106.031804 0 0 0-29.757313-11.085234l-5.500612 54.832104c-1.154128 9.983111 10.171132 16.521839 18.24003 10.531173l17.279924-12.429384c-12.695413-3.690411-7.892879-19.106127-7.892879-19.106127z" fill="#47477F" p-id="2809"></path></svg>